<svg width="241" height="67" viewBox="0 0 241 67" fill="none" xmlns="http://www.w3.org/2000/svg">
  <path d="M16 31.3668C25.5386 29.0801 34.7074 23.6173 44.3311 22.0793C50.4176 21.1066 57.2727 20.9856 63.6056 19.936C74.7009 18.0971 63.2725 27.8733 61.98 29.1585C57.1409 33.9706 54.1776 39.2621 49.9044 44.2263C48.1427 46.273 45.26 52.7978 45.26 50.5263C45.26 48.6867 47.3002 47.6129 49.7883 46.4995C59.1687 42.3019 68.1001 38.2164 77.0744 33.7049C90.1115 27.151 102.778 21.7099 118.41 17.3381C125.338 15.4005 130.726 15 138.265 15C147.863 15 136.972 28.3657 135.13 30.1977C127.958 37.3295 109.734 50.4085 134.201 37.6667C138.444 35.4572 194.896 6.48693 195.74 18.767C196.066 23.5079 195.142 27.9296 192.605 32.4709C191.547 34.3638 186.595 38.965 190.515 40.7192C200.306 45.1006 217.196 34.277 225 31.3668" stroke="url(#about-title-draw)" stroke-width="30" stroke-linecap="round"/>
  <defs>
    <linearGradient id="about-title-draw" x1="121.064" y1="15" x2="103.868" y2="60.6965" gradientUnits="userSpaceOnUse">
      <stop stop-color="#98E5E1" stop-opacity="0.56"/>
      <stop offset="1" stop-color="#E791C3" stop-opacity="0.18"/>
    </linearGradient>
  </defs>
</svg>