<svg width="255" height="81" viewBox="0 0 255 81" fill="none" xmlns="http://www.w3.org/2000/svg">
<path d="M16 37.7316C26.1776 34.5557 35.9605 26.9685 46.2289 24.8323C52.7231 23.4813 60.0374 23.3133 66.7944 21.8556C78.633 19.3016 66.4391 32.8796 65.06 34.6646C59.8968 41.348 56.7349 48.6973 52.1756 55.5921C50.2958 58.4347 47.22 67.4969 47.22 64.342C47.22 61.787 49.3969 60.2957 52.0517 58.7493C62.0604 52.9193 71.59 47.245 81.1656 40.979C95.0759 31.8764 108.591 24.3194 125.27 18.2474C132.662 15.5562 138.411 15 146.455 15C156.696 15 145.076 33.5634 143.11 36.1079C135.458 46.0132 116.013 64.1785 142.119 46.4815C146.646 43.4128 206.879 3.17629 207.78 20.2319C208.128 26.8166 207.142 32.9578 204.435 39.2651C203.307 41.8942 198.022 48.2848 202.205 50.7211C212.652 56.8063 230.673 41.7736 239 37.7316" stroke="url(#paint0_linear_201_6)" stroke-width="30" stroke-linecap="round"/>
<defs>
<linearGradient id="paint0_linear_201_6" x1="128.102" y1="15" x2="99.4792" y2="73.4344" gradientUnits="userSpaceOnUse">
<stop stop-color="#98E5E1" stop-opacity="0.56"/>
<stop offset="1" stop-color="#E791C3" stop-opacity="0.18"/>
</linearGradient>
</defs>
</svg>
