<svg width="211" height="86" viewBox="0 0 211 86" fill="none" xmlns="http://www.w3.org/2000/svg">
<path d="M16 40.0648C24.171 36.5629 32.0251 28.1969 40.2691 25.8415C45.4829 24.3518 51.3551 24.1666 56.78 22.5592C66.2845 19.7431 56.4947 34.7147 55.3875 36.683C51.2423 44.0523 48.7038 52.156 45.0433 59.7585C43.5342 62.8928 41.0648 72.8852 41.0648 69.4065C41.0648 66.5893 42.8125 64.9448 44.9438 63.2397C52.9793 56.8114 60.6301 50.5546 68.3177 43.6455C79.4856 33.6086 90.3363 25.2759 103.727 18.5807C109.662 15.6133 114.277 15 120.735 15C128.957 15 119.628 35.4688 118.049 38.2744C111.906 49.1964 96.2948 69.2262 117.254 49.7127C120.888 46.3291 169.246 1.96271 169.969 20.7689C170.249 28.0294 169.457 34.801 167.284 41.7557C166.378 44.6546 162.135 51.7011 165.493 54.3875C173.881 61.0973 188.349 44.5216 195.034 40.0648" stroke="url(#paint0_linear_25_45)" stroke-width="30" stroke-linecap="round"/>
<defs>
<linearGradient id="paint0_linear_25_45" x1="106" y1="15" x2="69" y2="70" gradientUnits="userSpaceOnUse">
<stop stop-color="#98E5E1" stop-opacity="0.56"/>
<stop offset="1" stop-color="#E791C3" stop-opacity="0.18"/>
</linearGradient>
</defs>
</svg>
